<svg xmlns="http://www.w3.org/2000/svg" viewBox="0 0 5114.38 4415.29"><defs><style>.cls-1{fill:#edeced;}.cls-2{fill:#fff;}.cls-3{fill:#f68a22;}</style></defs><title>Asset 3</title><g id="Layer_2" data-name="Layer 2"><g id="Layer_1-2" data-name="Layer 1"><g id="_Group_" data-name="&lt;Group&gt;"><path id="_Path_" data-name="&lt;Path&gt;" class="cls-1" d="M3477.66,1364.69l0,.25c0,.08,0,.16.05.25Z"/><path id="_Compound_Path_" data-name="&lt;Compound Path&gt;" class="cls-1" d="M3477.87,1366.42l-.19-1.47c-2.63-15.26-7.94-28.94-16.47-40.79-24.07-33.43-61.08-39.65-83.64-39.92l0,0-1.13,0q-2.77,0-5.2.08l-184.17,2.77h0l-347.79,5.26-1.11-73.82,271-4.09a47.81,47.81,0,0,0,47.07-48.53l-6.31-417.47a47.9,47.9,0,0,0-48.53-47.07L2463.85,711a47.78,47.78,0,0,0-47.07,48.51l6.31,417.47a47.83,47.83,0,0,0,48.52,47.07l271-4.09,1.11,73.82-854.52,12.91,2.05-138.32c.76-51.64,16.33-138.64,111.86-141l121.2-1.8c94.94-.19,113.06,86.17,115.39,137.58a47.81,47.81,0,0,0,95.53-4.31c-6.31-139.67-89.59-229.45-213.37-228.88l-115.7,1.76c-1.08,0-2.19,0-1.82.12-1.28-.06-2.56-.11-3.64-.06-122.49,3.1-203,95.41-205.07,235.2l-2.09,141.2-81.43,1.24a47.8,47.8,0,1,0,1.44,95.6l78.58-1.19-1,64.11c-.34,24.76,18.28,45.46,43.6,48.19a49.59,49.59,0,0,0,5,.3,47.57,47.57,0,0,0,47.06-47.08l1-67,1020.87-15.42,1.55,0c114.28,0,234.71,45.66,282.73,131.19,15,30.32,20.95,62.41,20.36,94.39-.06.9,0,1.76-.06,2.67-.1,3.25-.49,6.48-.72,9.72-.6,6.13-1.19,12.28-1.75,17.77-11.1,78.59-57.49,152.94-101.91,194.82-50.36,43.21-104.07,81.83-161,114.37a1017,1017,0,0,1-140.35,66.33c-49.14,19.07-102.44,34.67-158.4,46.38a997.87,997.87,0,0,1-171.86,20.09l-23.87.59-44.12-.61h-9.85l8,1013.8c6.19.37,4.34,0,9.85,0a58.91,58.91,0,0,0,44.4-19.91c148.18-168.4,652.37-761.52,915.3-1323.41a950.62,950.62,0,0,0,38.54-95.55c23.37-63.92,38.91-125.61,48.35-169.59,6.82-29.36,10.34-51.83,12-64.21l0-.23h0c.45-3.38.77-6,1-7.76h0l1-8.6h-.1C3479.81,1393.64,3479.94,1379.37,3477.87,1366.42ZM2518,1127.7l-4.86-321.81L3055,797.7l4.86,321.81Z"/><path id="_Compound_Path_2" data-name="&lt;Compound Path&gt;" class="cls-1" d="M2040.41,887.45a168.88,168.88,0,0,0,20.85.95c93.37-1.4,168.18-78.52,166.76-171.88s-78.6-168.26-171.88-166.76a169.5,169.5,0,0,0-166.76,171.88C1890.68,808,1956.67,878.42,2040.41,887.45Zm-34.59-219.69a73.18,73.18,0,0,1,51.77-22.41,76.41,76.41,0,0,1,9.15.43,73.8,73.8,0,1,1-60.92,22Z"/></g><path id="_Path_2" data-name="&lt;Path&gt;" class="cls-2" d="M2491.45,0C2193.67,13,1926,133.35,1724.68,322.83A1120.78,1120.78,0,0,0,1618.43,425C1579,468.2,1542,517,1508.36,570.08q-13.46,21.2-25.91,43.22c-107,179-148.57,386.43-148.57,614.3a1220.39,1220.39,0,0,0,52.27,353.54,970.38,970.38,0,0,0,61.56,173.92c262.93,561.75,767.12,1155,915.41,1323.41a58.58,58.58,0,0,0,43.11,19.85v0l5.29.17V2084.62c-7.22.08-11.63,0-14-.13l-2.16-.12h0l-47.41-2.63c-5.39-.34-10.75-.68-16.38-1.43l-23-2.57-22.8-2.83c-125-17.14-248.79-58.91-357.93-120.78a968.76,968.76,0,0,1-160-113.8c-48.4-42.18-93.81-91.24-134.94-145.77a969,969,0,0,1-68.44-105.42c-181.59-316.32-82.81-696.41,17.54-893.55,172.42-333.68,513.27-566,914.26-583.44a56.1,56.1,0,0,0,53.62-58.48C2548.6,22.69,2522.4-.93,2491.45,0Z"/><circle id="_Path_3" data-name="&lt;Path&gt;" class="cls-3" cx="767.76" cy="3315.11" r="118.3"/><path id="_Compound_Path_3" data-name="&lt;Compound Path&gt;" class="cls-2" d="M504.8,3593.88c-45.33-56.11-109-84.56-189.27-84.56-81,0-146,30.77-193.83,91.55v-77.65H0v892.08H121.7V4081.5c42.27,49.85,98.17,75.08,166.62,75.08,87.59,0,157.68-31.76,208.35-94.4,50-61.76,75.34-144.74,75.34-246.59C572,3723.72,549.4,3649.13,504.8,3593.88ZM448,3813.83c0,75.06-15.57,134.12-46.29,175.53-30.21,40.76-70.9,60.57-124.39,60.57-45.58,0-82-15.37-111.47-47-29.72-31.83-44.16-69.66-44.16-115.59v-82.79c0-54.24,15.83-99.85,47.05-135.59s71.44-53,123-53c48.3,0,85.42,16.75,113.48,51.18C433.62,3702,448,3751.35,448,3813.83Z"/><g id="_Group_2" data-name="&lt;Group&gt;"><path id="_Path_4" data-name="&lt;Path&gt;" class="cls-2" d="M770.31,3399.49c20.93,0,39-7.34,53.66-21.77s22.24-32.36,22.24-53c0-21.42-7.51-39.55-22.31-53.9-29.13-28.23-77.13-28.72-106.39.09-14.56,14.34-21.94,32.45-21.94,53.81s7.41,39.47,22,53.61S749.8,3399.49,770.31,3399.49Z"/><path id="_Path_5" data-name="&lt;Path&gt;" class="cls-2" d="M921.41,4026.23c-12.08,3.81-26.1,5.73-41.71,5.73-23.13,0-49.7-7.75-49.7-68.21V3523.21H708.3v457.32c0,26.94,3.88,51,11.56,71.59s18.43,38.24,31.82,52.32a127.91,127.91,0,0,0,48.12,31.63,165.7,165.7,0,0,0,57.92,10.1,285.74,285.74,0,0,0,40.37-2.74,277.56,277.56,0,0,0,30.77-5.81l10-2.63V4020.76Z"/></g><path id="_Path_6" data-name="&lt;Path&gt;" class="cls-2" d="M1310.19,3616c47.15,0,92.07,14.75,133.54,43.88l21.08,14.79V3543.26l-7.54-3.66c-41.38-20.09-89.7-30.28-143.6-30.28-96.79,0-175.42,31.31-233.73,93-58.12,61.54-87.59,143.81-87.59,244.48,0,90.72,27.43,165.76,81.52,223,54.26,57.53,126.37,86.69,214.33,86.69,64.66,0,121.49-14.47,169-43l6.5-3.9V3985l-21.43,16.17c-43,32.38-89.34,48.79-137.81,48.79-58,0-102.71-18.26-136.82-55.81s-51.22-89.68-51.22-155.38c0-66.92,18.43-121.46,54.78-162.12S1253.05,3616,1310.19,3616Z"/><polygon id="_Path_7" data-name="&lt;Path&gt;" class="cls-2" points="1825.82 3822.51 2113.6 3523.21 1951.83 3523.21 1719.89 3776.21 1719.89 3238.43 1598.19 3238.43 1598.19 4142.69 1719.89 4142.69 1719.89 3876.36 1964.56 4142.69 2135.11 4142.69 1825.82 3822.51"/><path id="_Path_8" data-name="&lt;Path&gt;" class="cls-2" d="M2576,3903.19a154.77,154.77,0,0,0-37.06-50.36c-15.46-14-34.36-26.76-56.16-37.9a758,758,0,0,0-71.79-31.48q-29.32-11.51-52.35-21.3c-14.26-6-26.57-12.88-36.52-20.33-9.2-6.93-16.23-14.81-20.84-23.4s-6.82-19.38-6.82-32.49a55.63,55.63,0,0,1,6.76-27.45,65.9,65.9,0,0,1,19.75-21.86c9-6.42,20-11.5,32.66-15.09,13-3.7,27.88-5.56,44.36-5.56,53.81,0,102,13.67,143.15,40.65l20.73,13.56v-129.6l-8-3.51c-42-18.41-90.2-27.75-143.12-27.75a337.23,337.23,0,0,0-87.7,11.45c-28.55,7.71-54.35,19.34-76.7,34.58a183.43,183.43,0,0,0-54.89,58c-13.93,23.4-21,50.52-21,80.64,0,24.37,3.73,46.08,11.07,64.55a147.56,147.56,0,0,0,33.07,50c14.19,14.19,32,27.05,52.93,38.22A691.17,691.17,0,0,0,2338.2,3879q28.2,10.92,52.71,21a212.24,212.24,0,0,1,40.27,21.45,94.15,94.15,0,0,1,25.37,25.54c5.66,8.74,8.53,19.81,8.53,32.94,0,30-11.58,70-111.64,70-58.95,0-113.73-18.39-162.8-54.69l-21.34-15.8v136.51l7.15,3.75c46.47,24.46,101.93,36.88,164.83,36.88a384,384,0,0,0,91.77-10.81c29.54-7.28,56.07-18.62,78.83-33.68a179.86,179.86,0,0,0,55.9-58.11c14.13-23.62,21.3-51.63,21.3-83.27C2589.1,3945,2584.71,3922.31,2576,3903.19Z"/><path id="_Compound_Path_4" data-name="&lt;Compound Path&gt;" class="cls-2" d="M3230.78,3593.88c-45.33-56.11-109-84.56-189.27-84.56-81,0-146,30.77-193.83,91.55v-77.65H2726v892.08h121.7V4081.5c42.27,49.85,98.17,75.08,166.62,75.08,87.59,0,157.68-31.76,208.35-94.4,50-61.76,75.34-144.74,75.34-246.59C3298,3723.72,3275.39,3649.13,3230.78,3593.88ZM3174,3813.83c0,75.06-15.57,134.12-46.29,175.53-30.21,40.76-70.9,60.57-124.39,60.57-45.58,0-82-15.37-111.47-47-29.72-31.83-44.16-69.66-44.16-115.59v-82.79c0-54.24,15.83-99.85,47.05-135.59s71.44-53,123-53c48.3,0,85.42,16.75,113.48,51.18C3159.6,3702,3174,3751.35,3174,3813.83Z"/><path id="_Compound_Path_5" data-name="&lt;Compound Path&gt;" class="cls-2" d="M3653.72,3509.32c-78.25,0-148.44,19.4-208.62,57.66l-6.2,3.94v133.44l22-18.63c54.74-46.29,116.86-69.76,184.68-69.76,71.06,0,105.75,40.12,108.56,126.05l-166,23.26C3450.73,3784.4,3381,3853.92,3381,3971.86c0,55.34,18.28,100.49,54.31,134.19,35.74,33.52,85.46,50.52,147.77,50.52,71.36,0,128.81-26.87,171.25-79.93v66H3876V3743.81C3876,3588.22,3801.25,3509.32,3653.72,3509.32Zm100.64,335.51v43.69c0,47.48-13.87,85.5-42.44,116.21-28.29,30.42-63.22,45.2-106.82,45.2-31.26,0-55.34-7.88-73.6-24.1-17.81-15.81-26.46-35.74-26.46-60.91,0-34.93,9.35-59.19,27.86-72.09,20.52-14.34,52.06-24.57,93.71-30.42Z"/><path id="_Path_9" data-name="&lt;Path&gt;" class="cls-2" d="M4323.24,3616c47.13,0,92.09,14.75,133.54,43.88l21.06,14.79V3543.26l-7.51-3.66c-41.41-20.09-89.73-30.28-143.62-30.28-96.79,0-175.44,31.31-233.77,93-58.11,61.56-87.53,143.81-87.53,244.48,0,90.72,27.41,165.76,81.48,223,54.26,57.53,126.37,86.69,214.35,86.69,64.64,0,121.48-14.47,169-43l6.46-3.88V3985l-21.43,16.13c-43,32.39-89.32,48.81-137.79,48.81-58,0-102.73-18.26-136.82-55.81s-51.23-89.68-51.23-155.38c0-66.92,18.45-121.46,54.78-162.12S4266.11,3616,4323.24,3616Z"/><path id="_Compound_Path_6" data-name="&lt;Compound Path&gt;" class="cls-2" d="M5114.38,3806.88c0-91.94-22.48-165.15-66.81-217.58-45-53.08-109-80-190.26-80-81.11,0-150,30.81-204.71,91.55-54.33,60.35-81.86,139.19-81.86,234.4,0,100.53,25.28,180,75.13,236.08,50.26,56.56,120.06,85.23,207.4,85.23,88.17,0,160.31-19.94,214.5-59.28l5.49-4V3969.77l-21.66,17c-53.25,41.88-112.4,63.11-175.77,63.11-55.3,0-99.18-16.69-130.33-49.61-29.13-30.83-45.6-74.59-49-130.23h417.9ZM4855.6,3616c42.57,0,74.72,13.42,98.32,41.06,21.7,25.37,33.8,60.92,36.07,105.81H4699.51c8.33-41.69,25.65-76.24,51.64-102.84C4780,3630.36,4814.18,3616,4855.6,3616Z"/><circle id="_Path_10" data-name="&lt;Path&gt;" class="cls-3" cx="767.76" cy="3315.11" r="101.57"/></g></g></svg>